<?xml version="1.0" standalone="no"?><!DOCTYPE svg PUBLIC "-//W3C//DTD SVG 1.1//EN" "http://www.w3.org/Graphics/SVG/1.1/DTD/svg11.dtd"><svg class="icon" width="200px" height="200.00px" viewBox="0 0 1024 1024" version="1.1" xmlns="http://www.w3.org/2000/svg"><path d="M512 10.62499999a86.28260845 86.28260845 0 0 1 86.28260845 86.28260846v43.14130421H425.71739155V96.90760845a86.28260845 86.28260845 0 0 1 86.28260845-86.28260844zM166.86956526 183.19021786v733.4021737a86.28260845 86.28260845 0 0 0 86.28260845 86.28260845h517.69565258a86.28260845 86.28260845 0 0 0 86.28260845-86.28260845V183.19021786z m215.70652208 603.97826007a43.14130422 43.14130422 0 0 1-86.28260942 0V312.61413052a43.14130422 43.14130422 0 0 1 86.28260942 0z m172.56521688 0a43.14130422 43.14130422 0 0 1-86.28260844 0V312.61413052a43.14130422 43.14130422 0 0 1 86.28260844 0z m172.56521785 0a43.14130422 43.14130422 0 0 1-86.28260941 0V312.61413052a43.14130422 43.14130422 0 0 1 86.28260941 0z" fill="#F55E55" /><path d="M80.58695681 96.90760845m43.14130423 0l776.54347792 0q43.14130422 0 43.14130423 43.14130421l0 0q0 43.14130422-43.14130423 43.1413052l-776.54347792 0q-43.14130422 0-43.14130423-43.1413052l0 0q0-43.14130422 43.14130423-43.14130421Z" fill="#F9BBB8" /></svg>